#N canvas 415 315 2552 1012 10;
#X obj 107 238 hsl 30 15 0 127 0 1 \$0-maestro4-pan1-s \$0-maestro4-pan1-r PAN1 0 25 0 10 #fcfcfc #000000 #000000 0 1;
#X obj 104 155 vsl 17 80 1.27 127 1 1 \$0-maestro4-ch1-s \$0-maestro4-ch1-r CH1 -1 -9 0 10 #fcfcfc #000000 #000000 7900 1;
#X obj 123 155 vu 15 80 \$0-maestro4-ch1-meter-r empty -1 -8 0 10 #404040 #000000 0 0;
#X obj 152 238 hsl 30 15 0 127 0 1 \$0-maestro4-pan2-s \$0-maestro4-pan2-r PAN2 0 25 0 10 #fcfcfc #000000 #000000 2900 1;
#X obj 149 155 vsl 17 80 1.27 127 1 1 \$0-maestro4-ch2-s \$0-maestro4-ch2-r CH2 -1 -9 0 10 #fcfcfc #000000 #000000 7900 1;
#X obj 168 155 vu 15 80 \$0-maestro4-ch2-meter-r empty -1 -8 0 10 #404040 #000000 0 0;
#X obj 197 238 hsl 30 15 0 127 0 1 \$0-maestro4-pan3-s \$0-maestro4-pan3-r PAN3 0 25 0 10 #fcfcfc #000000 #000000 0 1;
#X obj 194 155 vsl 17 80 1.27 127 1 1 \$0-maestro4-ch3-s \$0-maestro4-ch3-r CH3 -1 -9 0 10 #fcfcfc #000000 #000000 4800 1;
#X obj 213 155 vu 15 80 \$0-maestro4-ch3-meter-r empty -1 -8 0 10 #404040 #000000 0 0;
#X obj 242 238 hsl 30 15 0 127 0 1 \$0-maestro4-pan4-s \$0-maestro4-pan4-r PAN4 0 25 0 10 #fcfcfc #000000 #000000 2900 1;
#X obj 239 155 vsl 17 80 1.27 127 1 1 \$0-maestro4-ch4-s \$0-maestro4-ch4-r CH4 -1 -9 0 10 #fcfcfc #000000 #000000 4700 1;
#X obj 258 155 vu 15 80 \$0-maestro4-ch4-meter-r empty -1 -8 0 10 #404040 #000000 0 0;
#X obj 309 155 vu 15 80 \$0-maestro4-meter-left-r empty -1 -8 0 10 #404040 #000000 0 0;
#X obj 327 155 vu 15 80 \$0-maestro4-meter-right-r empty -1 -8 0 10 #404040 #000000 0 0;
#X obj 277 155 vsl 30 79 1.27 127 1 1 \$0-maestro4-master-s \$0-maestro4-master-r MASTER 0 -8 0 10 #fcfcfc #000000 #000000 5400 1;
#X obj 104 126 cnv 5 5 5 empty empty MAESTRO4 0 0 0 12 #fcfcfc #404040 0;
#X obj 166 109 cnv 5 5 5 empty empty CH2 0 0 0 8 #fcfcfc #404040 0;
#X obj 104 109 cnv 5 5 5 empty empty CH1 0 0 0 8 #fcfcfc #404040 0;
#X obj 234 109 cnv 5 5 5 empty empty CH3 0 0 0 8 #fcfcfc #404040 0;
#X obj 166 126 cnv 5 5 5 empty \$0-instance-num 1 0 0 0 12 #fcfcfc #404040 0;
#X obj 457 311 inlet~ CHANNEL_ONE;
#X obj 467 621 *~;
#X obj 512 621 *~;
#X obj 309 441 r \$0-maestro4-pan1-s;
#X obj 309 491 t f f;
#X msg 309 513 1 \$1;
#X obj 309 535 -;
#X obj 309 557 pack 0 50;
#X obj 309 579 line~;
#X obj 309 602 +~;
#X obj 379 557 pack 0 50;
#X obj 379 579 line~;
#X obj 379 602 +~;
#X obj 467 738 throw~ \$0-left;
#X obj 512 696 throw~ \$0-right;
#X obj 19 311 catch~ \$0-left;
#X obj 64 340 catch~ \$0-right;
#X obj 469 516 *~;
#X obj 484 360 r \$0-maestro4-ch1-s;
#X obj 484 407 * 0.00787402;
#X obj 484 467 pack 0 50;
#X obj 484 489 line~;
#X obj 484 383 - 1.27;
#X obj 625 272 *~;
#X obj 670 272 *~;
#X obj 466 144 t f f;
#X msg 466 166 1 \$1;
#X obj 466 188 -;
#X obj 466 210 pack 0 50;
#X obj 466 232 line~;
#X obj 466 256 +~;
#X obj 536 210 pack 0 50;
#X obj 536 232 line~;
#X obj 536 256 +~;
#X obj 625 359 throw~ \$0-left;
#X obj 670 337 throw~ \$0-right;
#X obj 625 199 *~;
#X obj 640 150 pack 0 50;
#X obj 640 172 line~;
#X obj 640 82 - 1.27;
#X obj 625 31 inlet~ CHANNEL_TWO;
#X obj 640 59 r \$0-maestro4-ch2-s;
#X obj 466 100 r \$0-maestro4-pan2-s;
#X obj 827 627 *~;
#X obj 872 627 *~;
#X obj 668 477 * 0.00787402;
#X obj 668 499 t f f;
#X msg 668 521 1 \$1;
#X obj 668 543 -;
#X obj 668 565 pack 0 50;
#X obj 668 587 line~;
#X obj 668 610 +~;
#X obj 738 565 pack 0 50;
#X obj 738 587 line~;
#X obj 738 610 +~;
#X obj 827 714 throw~ \$0-left;
#X obj 872 692 throw~ \$0-right;
#X obj 827 554 *~;
#X obj 842 438 * 0.00787402;
#X obj 842 505 pack 0 50;
#X obj 842 527 line~;
#X obj 842 414 - 1.27;
#X obj 827 347 inlet~ CHANNEL_THREE;
#X obj 842 391 r \$0-maestro4-ch3-s;
#X obj 668 455 r \$0-maestro4-pan3-s;
#X obj 953 304 *~;
#X obj 998 304 *~;
#X obj 794 154 * 0.00787402;
#X obj 794 176 t f f;
#X msg 794 198 1 \$1;
#X obj 794 220 -;
#X obj 794 242 pack 0 50;
#X obj 794 264 line~;
#X obj 794 287 +~;
#X obj 864 242 pack 0 50;
#X obj 864 264 line~;
#X obj 864 287 +~;
#X obj 953 381 throw~ \$0-left;
#X obj 998 359 throw~ \$0-right;
#X obj 953 231 *~;
#X obj 968 114 * 0.00787402;
#X obj 968 182 pack 0 50;
#X obj 968 204 line~;
#X obj 968 90 - 1.27;
#X obj 953 34 inlet~ CHANNEL_FOUR;
#X obj 968 67 r \$0-maestro4-ch4-s;
#X obj 794 132 r \$0-maestro4-pan4-s;
#X obj 132 660 env~;
#X obj 132 706 s \$0-maestro4-meter-left-r;
#X obj 132 682 - 96;
#X obj 115 572 env~;
#X obj 115 594 - 96;
#X obj 115 618 s \$0-maestro4-meter-right-r;
#X obj 577 387 env~;
#X obj 577 409 - 96;
#X obj 577 431 s \$0-maestro4-ch1-meter-r;
#X obj 765 48 env~;
#X obj 765 71 - 96;
#X obj 968 424 env~;
#X obj 968 446 - 96;
#X obj 1092 101 env~;
#X obj 1092 123 - 96;
#X obj 765 93 s \$0-maestro4-ch2-meter-r;
#X obj 968 468 s \$0-maestro4-ch3-meter-r;
#X obj 1092 145 s \$0-maestro4-ch4-meter-r;
#X obj 64 472 *~;
#X obj 19 472 *~;
#X obj 97 366 r \$0-maestro4-master-s;
#X obj 97 410 * 0.00787402;
#X obj 97 432 pack 0 50;
#X obj 97 455 line~;
#X obj 97 388 - 1.27;
#X obj 326 109 cnv 5 5 5 empty empty PAN4 0 0 0 8 #fcfcfc #404040 0;
#X obj 128 109 cnv 5 5 5 empty empty PAN1 0 0 0 8 #fcfcfc #404040 0;
#X obj 197 109 cnv 5 5 5 empty empty PAN2 0 0 0 8 #fcfcfc #404040 0;
#X obj 268 109 cnv 5 5 5 empty empty PAN3 0 0 0 8 #fcfcfc #404040 0;
#X obj 304 109 cnv 5 5 5 empty empty CH4 0 0 0 8 #fcfcfc #404040 0;
#X obj 527 526 inlet~ PAN1 CV;
#X obj 527 555 *~ -1;
#X obj 673 238 *~ -1;
#X obj 673 213 inlet~ PAN2 CV;
#X obj 889 593 *~ -1;
#X obj 1016 270 *~ -1;
#X obj 1016 246 inlet~ PAN4 CV;
#X obj 889 568 inlet~ PAN3 CV;
#X obj 1099 329 r \$0-maestro4-sel-fx-s;
#X obj 1099 351 * 0.00787402;
#X obj 1099 373 * 4;
#X obj 1099 395 i;
#X obj 1099 417 sel 0 1 2 3;
#N canvas 80 183 1304 844 state-saving-multiple-instances 0;
#X obj 205 1 loadbang;
#X obj 447 534 textfile;
#X msg 717 517 rewind;
#X msg 674 517 bang;
#X obj 110 763 textfile;
#X obj 674 478 t b b;
#X obj 111 429 f;
#X obj 124 652 f;
#X obj 52 473 t b b b;
#X msg 187 652 clear;
#X obj 272 189 outlet;
#X text 314 193 INSTANCE NUMBER;
#X obj 233 125 f \$1;
#X obj 233 161 t f f f;
#X obj 206 34 t b b;
#X obj 52 450 bng 15 250 50 0 empty empty empty 17 7 0 10 #fcfcfc #000000 #000000;
#X obj 52 206 r SAVE-S;
#X obj 98 140 r \$0-maestro4-ch1-s;
#X obj 447 926 s \$0-maestro4-ch1-r;
#X msg 123 723 write statesave/\$1-maestro4-ss.txt;
#X msg 447 509 read statesave/\$1-maestro4-ss.txt;
#X obj 106 163 r \$0-maestro4-pan1-s;
#X obj 468 902 s \$0-maestro4-pan1-r;
#X obj 120 184 r \$0-maestro4-ch2-s;
#X obj 489 878 s \$0-maestro4-ch2-r;
#X obj 138 209 r \$0-maestro4-pan2-s;
#X obj 510 854 s \$0-maestro4-pan2-r;
#X obj 158 234 r \$0-maestro4-ch3-s;
#X obj 531 828 s \$0-maestro4-ch3-r;
#X obj 176 255 r \$0-maestro4-pan3-s;
#X obj 552 804 s \$0-maestro4-pan3-r;
#X obj 226 305 r \$0-maestro4-pan4-s;
#X obj 583 743 s \$0-maestro4-pan4-r;
#X obj 244 326 r \$0-maestro4-master-s;
#X obj 604 719 s \$0-maestro4-master-r, f 35;
#X obj 206 280 r \$0-maestro4-ch4-s;
#X obj 562 769 s \$0-maestro4-ch4-r;
#X obj 261 348 r \$0-maestro4-lpass-s;
#X obj 632 693 s \$0-maestro4-lpass-r;
#X obj 111 472 pack f f f f f f f f f f f f f f;
#X obj 284 371 r \$0-maestro4-mute1-s;
#X obj 294 391 r \$0-maestro4-mute2-s;
#X obj 304 411 r \$0-maestro4-mute3-s;
#X obj 314 431 r \$0-maestro4-mute4-s;
#X msg 111 510 set \$1 \$2 \$3 \$4 \$5 \$6 \$7 \$8 \$9 \$10 \$11 \$12 \$13 \$14;
#X obj 448 557 unpack f f f f f f f f f f f f f f;
#X obj 639 666 s \$0-maestro4-mute1-r;
#X obj 650 643 s \$0-maestro4-mute2-r;
#X obj 660 620 s \$0-maestro4-mute3-r;
#X obj 671 597 s \$0-maestro4-mute4-r;
#X connect 0 0 14 0;
#X connect 1 0 45 0;
#X connect 2 0 1 0;
#X connect 3 0 1 0;
#X connect 5 0 3 0;
#X connect 5 1 2 0;
#X connect 6 0 39 0;
#X connect 7 0 19 0;
#X connect 8 0 7 0;
#X connect 8 1 6 0;
#X connect 8 2 9 0;
#X connect 9 0 4 0;
#X connect 12 0 13 0;
#X connect 13 0 7 1;
#X connect 13 1 20 0;
#X connect 13 2 10 0;
#X connect 14 0 5 0;
#X connect 14 1 12 0;
#X connect 15 0 8 0;
#X connect 16 0 15 0;
#X connect 17 0 6 1;
#X connect 19 0 4 0;
#X connect 20 0 1 0;
#X connect 21 0 39 1;
#X connect 23 0 39 2;
#X connect 25 0 39 3;
#X connect 27 0 39 4;
#X connect 29 0 39 5;
#X connect 31 0 39 7;
#X connect 33 0 39 8;
#X connect 35 0 39 6;
#X connect 37 0 39 9;
#X connect 39 0 44 0;
#X connect 40 0 39 10;
#X connect 41 0 39 11;
#X connect 42 0 39 12;
#X connect 43 0 39 13;
#X connect 44 0 4 0;
#X connect 45 0 18 0;
#X connect 45 1 22 0;
#X connect 45 2 24 0;
#X connect 45 3 26 0;
#X connect 45 4 28 0;
#X connect 45 5 30 0;
#X connect 45 6 36 0;
#X connect 45 7 32 0;
#X connect 45 8 34 0;
#X connect 45 9 38 0;
#X connect 45 10 46 0;
#X connect 45 11 47 0;
#X connect 45 12 48 0;
#X connect 45 13 49 0;
#X restore 1068 566 pd state-saving-multiple-instances;
#X obj 1068 640 s \$0-instance-num;
#X obj 1068 592 makefilename %d;
#X msg 1068 617 label \$1;
#X obj 64 596 hip~ 5;
#X obj 63 711 clip~ -1 1;
#X obj 19 525 hip~ 5;
#X obj 18 689 clip~ -1 1;
#X obj 640 127 clip 0 1;
#X obj 968 136 clip 0 1;
#X obj 640 105 * 0.00787402;
#X obj 842 460 clip 0 1;
#X obj 484 434 clip 0 1;
#X obj 19 498 *~ 1;
#X obj 64 574 *~ 1;
#X obj 18 735 dac~ 1 2;
#X obj 1057 742 outlet~ LEFT;
#X obj 1144 740 outlet~ RIGHT;
#X floatatom 593 463 5 0 0 0 - - - 0;
#X floatatom 933 492 5 0 0 0 - - - 0;
#X obj 309 468 / 127;
#X obj 466 122 / 127;
#X obj 104 278 cnv 5 5 5 empty empty CH1 0 0 0 8 #fcfcfc #404040 0;
#X obj 287 278 cnv 5 5 5 empty empty LEFT 0 0 0 8 #fcfcfc #404040 0;
#X obj 323 278 cnv 5 5 5 empty empty RIGHT 0 0 0 8 #fcfcfc #404040 0;
#X obj 303 755 outlet~ 1L;
#X obj 635 744 outlet~ 2L;
#X obj 746 743 outlet~ 3L;
#X obj 944 743 outlet~ 4L;
#X obj 145 278 cnv 5 5 5 empty empty CH2 0 0 0 8 #fcfcfc #404040 0;
#X obj 193 278 cnv 5 5 5 empty empty CH3 0 0 0 8 #fcfcfc #404040 0;
#X obj 242 278 cnv 5 5 5 empty empty CH4 0 0 0 8 #fcfcfc #404040 0;
#X obj 180 120 hsl 128 15 1.27 127 1 1 \$0-maestro4-lpass-s \$0-maestro4-lpass-r LPASS 135 7 0 10 #fcfcfc #000000 #000000 6300 1;
#X obj 189 408 r \$0-maestro4-lpass-s;
#X obj 189 430 / 127;
#X obj 189 452 * 19950;
#X floatatom 189 496 5 0 0 0 - - - 0;
#X obj 189 474 - 150;
#X obj 189 515 pack 0 50;
#X obj 19 547 lop~;
#X obj 19 569 lop~;
#X obj 64 618 lop~;
#X obj 64 640 lop~;
#X obj 189 537 line;
#X obj 189 559 t f f f f;
#N canvas 807 127 1294 944 external-messages 0;
#X floatatom 25 702 5 0 0 0 - - - 0;
#X obj 24 324 spigot;
#X obj 57 284 tgl 15 0 empty empty empty 17 7 0 10 #fcfcfc #000000 #000000 0 1;
#X obj 93 268 ==;
#X obj 108 244 f \$1;
#X obj 108 220 loadbang;
#X msg 24 198 \$1 \$2;
#X msg 24 152 symbol \$1;
#X obj 24 176 pack s f;
#X obj 25 681 f;
#X obj 25 629 t b f;
#X obj 25 652 spigot;
#X obj 24 58 unpack s f f;
#X symbolatom 24 90 10 0 0 0 - - - 0;
#X obj 57 304 t f f;
#X obj 84 328 s \$0-msg-spigot;
#X obj 73 636 r \$0-msg-spigot;
#X floatatom 62 590 5 0 0 0 - - - 0;
#X obj 62 569 f;
#X obj 62 517 t b f;
#X obj 62 540 spigot;
#X obj 110 524 r \$0-msg-spigot;
#X floatatom 192 707 5 0 0 0 - - - 0;
#X obj 192 686 f;
#X obj 192 634 t b f;
#X obj 192 657 spigot;
#X obj 240 641 r \$0-msg-spigot;
#X floatatom 224 584 5 0 0 0 - - - 0;
#X obj 224 563 f;
#X obj 224 511 t b f;
#X obj 224 534 spigot;
#X obj 272 518 r \$0-msg-spigot;
#X floatatom 368 699 5 0 0 0 - - - 0;
#X obj 368 678 f;
#X obj 368 626 t b f;
#X obj 368 649 spigot;
#X obj 416 633 r \$0-msg-spigot;
#X obj 24 10 r maestro4;
#X floatatom 383 566 5 0 0 0 - - - 0;
#X obj 383 545 f;
#X obj 383 493 t b f;
#X obj 383 516 spigot;
#X obj 431 500 r \$0-msg-spigot;
#X floatatom 538 695 5 0 0 0 - - - 0;
#X obj 538 674 f;
#X obj 538 622 t b f;
#X obj 538 645 spigot;
#X obj 586 629 r \$0-msg-spigot;
#X floatatom 578 544 5 0 0 0 - - - 0;
#X obj 578 523 f;
#X obj 578 471 t b f;
#X obj 578 494 spigot;
#X obj 626 478 r \$0-msg-spigot;
#X floatatom 596 415 5 0 0 0 - - - 0;
#X obj 596 394 f;
#X obj 596 342 t b f;
#X obj 596 365 spigot;
#X obj 644 349 r \$0-msg-spigot;
#X floatatom 647 278 5 0 0 0 - - - 0;
#X obj 647 257 f;
#X obj 647 205 t b f;
#X obj 647 228 spigot;
#X obj 695 212 r \$0-msg-spigot;
#X obj 25 722 s \$0-maestro4-ch1-r;
#X obj 62 610 s \$0-maestro4-ch2-r;
#X obj 192 727 s \$0-maestro4-ch3-r;
#X obj 224 604 s \$0-maestro4-ch4-r;
#X obj 368 719 s \$0-maestro4-pan1-r;
#X obj 383 586 s \$0-maestro4-pan2-r;
#X obj 538 715 s \$0-maestro4-pan3-r;
#X obj 578 564 s \$0-maestro4-pan4-r;
#X obj 596 435 s \$0-maestro4-lpass-r;
#X obj 647 298 s \$0-maestro4-master-r;
#X obj 249 30 route CH1 CH2 CH3 CH4 PAN1 PAN2 PAN3 PAN4 LPASS MASTER MUT1 MUT2 MUT3 MUT4;
#X floatatom 907 587 5 0 0 0 - - - 0;
#X obj 907 566 f;
#X obj 907 514 t b f;
#X obj 907 537 spigot;
#X obj 955 521 r \$0-msg-spigot;
#X obj 907 607 s \$0-maestro4-mute1-r;
#X floatatom 917 457 5 0 0 0 - - - 0;
#X obj 917 436 f;
#X obj 917 384 t b f;
#X obj 917 407 spigot;
#X obj 965 391 r \$0-msg-spigot;
#X floatatom 927 327 5 0 0 0 - - - 0;
#X obj 927 306 f;
#X obj 927 254 t b f;
#X obj 927 277 spigot;
#X obj 975 261 r \$0-msg-spigot;
#X floatatom 936 196 5 0 0 0 - - - 0;
#X obj 936 175 f;
#X obj 936 123 t b f;
#X obj 936 146 spigot;
#X obj 984 130 r \$0-msg-spigot;
#X obj 918 477 s \$0-maestro4-mute2-r;
#X obj 927 347 s \$0-maestro4-mute3-r;
#X obj 936 216 s \$0-maestro4-mute4-r;
#X connect 0 0 63 0;
#X connect 1 0 73 0;
#X connect 2 0 14 0;
#X connect 3 0 2 0;
#X connect 4 0 3 1;
#X connect 5 0 4 0;
#X connect 6 0 1 0;
#X connect 7 0 8 0;
#X connect 8 0 6 0;
#X connect 9 0 0 0;
#X connect 10 0 11 0;
#X connect 10 1 9 1;
#X connect 11 0 9 0;
#X connect 12 0 13 0;
#X connect 12 1 8 1;
#X connect 12 2 3 0;
#X connect 13 0 7 0;
#X connect 14 0 1 1;
#X connect 14 1 15 0;
#X connect 16 0 11 1;
#X connect 17 0 64 0;
#X connect 18 0 17 0;
#X connect 19 0 20 0;
#X connect 19 1 18 1;
#X connect 20 0 18 0;
#X connect 21 0 20 1;
#X connect 22 0 65 0;
#X connect 23 0 22 0;
#X connect 24 0 25 0;
#X connect 24 1 23 1;
#X connect 25 0 23 0;
#X connect 26 0 25 1;
#X connect 27 0 66 0;
#X connect 28 0 27 0;
#X connect 29 0 30 0;
#X connect 29 1 28 1;
#X connect 30 0 28 0;
#X connect 31 0 30 1;
#X connect 32 0 67 0;
#X connect 33 0 32 0;
#X connect 34 0 35 0;
#X connect 34 1 33 1;
#X connect 35 0 33 0;
#X connect 36 0 35 1;
#X connect 37 0 12 0;
#X connect 38 0 68 0;
#X connect 39 0 38 0;
#X connect 40 0 41 0;
#X connect 40 1 39 1;
#X connect 41 0 39 0;
#X connect 42 0 41 1;
#X connect 43 0 69 0;
#X connect 44 0 43 0;
#X connect 45 0 46 0;
#X connect 45 1 44 1;
#X connect 46 0 44 0;
#X connect 47 0 46 1;
#X connect 48 0 70 0;
#X connect 49 0 48 0;
#X connect 50 0 51 0;
#X connect 50 1 49 1;
#X connect 51 0 49 0;
#X connect 52 0 51 1;
#X connect 53 0 71 0;
#X connect 54 0 53 0;
#X connect 55 0 56 0;
#X connect 55 1 54 1;
#X connect 56 0 54 0;
#X connect 57 0 56 1;
#X connect 58 0 72 0;
#X connect 59 0 58 0;
#X connect 60 0 61 0;
#X connect 60 1 59 1;
#X connect 61 0 59 0;
#X connect 62 0 61 1;
#X connect 73 0 10 0;
#X connect 73 1 19 0;
#X connect 73 2 24 0;
#X connect 73 3 29 0;
#X connect 73 4 34 0;
#X connect 73 5 40 0;
#X connect 73 6 45 0;
#X connect 73 7 50 0;
#X connect 73 8 55 0;
#X connect 73 9 60 0;
#X connect 73 10 76 0;
#X connect 73 11 82 0;
#X connect 73 12 87 0;
#X connect 73 13 92 0;
#X connect 74 0 79 0;
#X connect 75 0 74 0;
#X connect 76 0 77 0;
#X connect 76 1 75 1;
#X connect 77 0 75 0;
#X connect 78 0 77 1;
#X connect 80 0 95 0;
#X connect 81 0 80 0;
#X connect 82 0 83 0;
#X connect 82 1 81 1;
#X connect 83 0 81 0;
#X connect 84 0 83 1;
#X connect 85 0 96 0;
#X connect 86 0 85 0;
#X connect 87 0 88 0;
#X connect 87 1 86 1;
#X connect 88 0 86 0;
#X connect 89 0 88 1;
#X connect 90 0 97 0;
#X connect 91 0 90 0;
#X connect 92 0 93 0;
#X connect 92 1 91 1;
#X connect 93 0 91 0;
#X connect 94 0 93 1;
#X restore 1066 538 pd external-messages;
#X obj 467 659 *~;
#X obj 512 659 *~;
#X obj 122 138 tgl 16 0 \$0-maestro4-mute1-s \$0-maestro4-mute1-r empty 0 -8 0 10 #ffffff #000000 #000000 0 1;
#X msg 542 621 \$1 100;
#X obj 542 642 line~;
#X obj 625 309 *~;
#X obj 670 309 *~;
#X msg 700 271 \$1 100;
#X obj 700 292 line~;
#X obj 168 138 tgl 16 0 \$0-maestro4-mute2-s \$0-maestro4-mute2-r empty 0 -8 0 10 #fcfcfc #000000 #000000 0 1;
#X obj 213 138 tgl 16 0 \$0-maestro4-mute3-s \$0-maestro4-mute3-r empty 0 -8 0 10 #fcfcfc #000000 #000000 0 1;
#X obj 258 138 tgl 16 0 \$0-maestro4-mute4-s \$0-maestro4-mute4-r empty 0 -8 0 10 #fcfcfc #000000 #000000 0 1;
#X obj 828 664 *~;
#X obj 873 664 *~;
#X msg 903 626 \$1 100;
#X obj 903 647 line~;
#X obj 953 332 *~;
#X obj 998 332 *~;
#X msg 1028 294 \$1 100;
#X obj 1028 315 line~;
#X obj 542 597 r \$0-maestro4-mute1-s;
#X obj 700 250 r \$0-maestro4-mute2-s;
#X obj 903 601 r \$0-maestro4-mute3-s;
#X obj 1063 271 r \$0-maestro4-mute4-s;
#X connect 20 0 37 0;
#X connect 21 0 196 0;
#X connect 22 0 197 0;
#X connect 23 0 170 0;
#X connect 24 0 25 0;
#X connect 24 1 30 0;
#X connect 25 0 26 0;
#X connect 26 0 27 0;
#X connect 27 0 28 0;
#X connect 28 0 29 0;
#X connect 29 0 21 1;
#X connect 30 0 31 0;
#X connect 31 0 32 0;
#X connect 32 0 22 1;
#X connect 35 0 126 0;
#X connect 35 0 166 0;
#X connect 36 0 125 0;
#X connect 36 0 167 0;
#X connect 37 0 21 0;
#X connect 37 0 22 0;
#X connect 37 0 113 0;
#X connect 37 0 175 0;
#X connect 38 0 42 0;
#X connect 39 0 162 0;
#X connect 40 0 41 0;
#X connect 41 0 37 1;
#X connect 42 0 39 0;
#X connect 43 0 201 0;
#X connect 44 0 202 0;
#X connect 45 0 46 0;
#X connect 45 1 51 0;
#X connect 46 0 47 0;
#X connect 47 0 48 0;
#X connect 48 0 49 0;
#X connect 49 0 50 0;
#X connect 50 0 43 1;
#X connect 51 0 52 0;
#X connect 52 0 53 0;
#X connect 53 0 44 1;
#X connect 56 0 43 0;
#X connect 56 0 44 0;
#X connect 56 0 116 0;
#X connect 56 0 176 0;
#X connect 57 0 58 0;
#X connect 58 0 56 1;
#X connect 59 0 160 0;
#X connect 60 0 56 0;
#X connect 61 0 59 0;
#X connect 62 0 171 0;
#X connect 63 0 208 0;
#X connect 64 0 209 0;
#X connect 65 0 66 0;
#X connect 66 0 67 0;
#X connect 66 1 72 0;
#X connect 67 0 68 0;
#X connect 68 0 69 0;
#X connect 69 0 70 0;
#X connect 70 0 71 0;
#X connect 71 0 63 1;
#X connect 72 0 73 0;
#X connect 73 0 74 0;
#X connect 74 0 64 1;
#X connect 77 0 63 0;
#X connect 77 0 64 0;
#X connect 77 0 118 0;
#X connect 77 0 177 0;
#X connect 78 0 161 0;
#X connect 79 0 80 0;
#X connect 80 0 77 1;
#X connect 81 0 78 0;
#X connect 82 0 77 0;
#X connect 83 0 81 0;
#X connect 84 0 65 0;
#X connect 85 0 212 0;
#X connect 86 0 213 0;
#X connect 87 0 88 0;
#X connect 88 0 89 0;
#X connect 88 1 94 0;
#X connect 89 0 90 0;
#X connect 90 0 91 0;
#X connect 91 0 92 0;
#X connect 92 0 93 0;
#X connect 93 0 85 1;
#X connect 94 0 95 0;
#X connect 95 0 96 0;
#X connect 96 0 86 1;
#X connect 99 0 85 0;
#X connect 99 0 86 0;
#X connect 99 0 120 0;
#X connect 99 0 178 0;
#X connect 100 0 159 0;
#X connect 101 0 102 0;
#X connect 102 0 99 1;
#X connect 103 0 100 0;
#X connect 104 0 99 0;
#X connect 105 0 103 0;
#X connect 106 0 87 0;
#X connect 107 0 109 0;
#X connect 109 0 108 0;
#X connect 110 0 111 0;
#X connect 111 0 112 0;
#X connect 113 0 114 0;
#X connect 114 0 115 0;
#X connect 116 0 117 0;
#X connect 117 0 122 0;
#X connect 118 0 119 0;
#X connect 119 0 123 0;
#X connect 120 0 121 0;
#X connect 121 0 124 0;
#X connect 125 0 164 0;
#X connect 126 0 163 0;
#X connect 127 0 131 0;
#X connect 128 0 129 0;
#X connect 129 0 130 0;
#X connect 130 0 125 1;
#X connect 130 0 126 1;
#X connect 131 0 128 0;
#X connect 137 0 138 0;
#X connect 137 0 32 1;
#X connect 138 0 29 1;
#X connect 139 0 50 1;
#X connect 140 0 139 0;
#X connect 140 0 53 1;
#X connect 141 0 71 1;
#X connect 142 0 93 1;
#X connect 143 0 142 0;
#X connect 143 0 96 1;
#X connect 144 0 141 0;
#X connect 144 0 74 1;
#X connect 145 0 146 0;
#X connect 146 0 147 0;
#X connect 147 0 148 0;
#X connect 148 0 149 0;
#X connect 150 0 152 0;
#X connect 152 0 153 0;
#X connect 153 0 151 0;
#X connect 154 0 191 0;
#X connect 155 0 165 1;
#X connect 156 0 189 0;
#X connect 157 0 165 0;
#X connect 158 0 57 0;
#X connect 159 0 101 0;
#X connect 160 0 158 0;
#X connect 161 0 79 0;
#X connect 161 0 169 0;
#X connect 162 0 40 0;
#X connect 162 0 168 0;
#X connect 163 0 107 0;
#X connect 163 0 156 0;
#X connect 164 0 110 0;
#X connect 164 0 154 0;
#X connect 170 0 24 0;
#X connect 171 0 45 0;
#X connect 183 0 184 0;
#X connect 184 0 185 0;
#X connect 185 0 187 0;
#X connect 186 0 188 0;
#X connect 187 0 186 0;
#X connect 188 0 193 0;
#X connect 189 0 190 0;
#X connect 190 0 157 0;
#X connect 191 0 192 0;
#X connect 192 0 155 0;
#X connect 193 0 194 0;
#X connect 194 0 189 1;
#X connect 194 1 190 1;
#X connect 194 2 191 1;
#X connect 194 3 192 1;
#X connect 196 0 33 0;
#X connect 197 0 34 0;
#X connect 199 0 200 0;
#X connect 200 0 197 1;
#X connect 200 0 196 1;
#X connect 201 0 54 0;
#X connect 202 0 55 0;
#X connect 203 0 204 0;
#X connect 204 0 202 1;
#X connect 204 0 201 1;
#X connect 208 0 75 0;
#X connect 209 0 76 0;
#X connect 210 0 211 0;
#X connect 211 0 209 1;
#X connect 211 0 208 1;
#X connect 212 0 97 0;
#X connect 213 0 98 0;
#X connect 214 0 215 0;
#X connect 215 0 213 1;
#X connect 215 0 212 1;
#X connect 216 0 199 0;
#X connect 217 0 203 0;
#X connect 218 0 210 0;
#X connect 219 0 214 0;
#X coords 0 -1 1 1 250 185 2 100 100;
